<svg aria-hidden="true" style="position: absolute; width: 0; height: 0; overflow: hidden;" version="1.1" xmlns="http://www.w3.org/2000/svg" xmlns:xlink="http://www.w3.org/1999/xlink">
<defs>
<symbol id="icon-droplet" viewBox="0 0 32 32">
<path d="M27.020 14.786c-2.055-5.732-6.41-10.88-11.020-14.786-4.61 3.907-8.965 9.054-11.020 14.786-1.271 3.545-1.396 7.393 0.393 10.794 2.058 3.911 6.207 6.42 10.626 6.42s8.569-2.509 10.626-6.42c1.79-3.401 1.664-7.249 0.393-10.794zM23.086 23.717c-1.369 2.602-4.15 4.283-7.086 4.283-1.723 0-3.391-0.579-4.753-1.583 0.414 0.054 0.832 0.083 1.254 0.083 3.67 0 7.146-2.1 8.856-5.351 1.402-2.665 1.281-5.433 0.746-7.636 0.455 0.88 0.841 1.756 1.151 2.623 0.706 1.971 1.251 4.886-0.168 7.581z"></path>
</symbol>
<symbol id="icon-play" viewBox="0 0 32 32">
<path d="M30.662 5.003c-4.488-0.645-9.448-1.003-14.662-1.003s-10.174 0.358-14.662 1.003c-0.86 3.366-1.338 7.086-1.338 10.997s0.477 7.63 1.338 10.997c4.489 0.645 9.448 1.003 14.662 1.003s10.174-0.358 14.662-1.003c0.86-3.366 1.338-7.086 1.338-10.997s-0.477-7.63-1.338-10.997zM12 22v-12l10 6-10 6z"></path>
</symbol>
<symbol id="icon-cart" viewBox="0 0 32 32">
<path d="M12 29c0 1.657-1.343 3-3 3s-3-1.343-3-3c0-1.657 1.343-3 3-3s3 1.343 3 3z"></path>
<path d="M32 29c0 1.657-1.343 3-3 3s-3-1.343-3-3c0-1.657 1.343-3 3-3s3 1.343 3 3z"></path>
<path d="M32 16v-12h-24c0-1.105-0.895-2-2-2h-6v2h4l1.502 12.877c-0.915 0.733-1.502 1.859-1.502 3.123 0 2.209 1.791 4 4 4h24v-2h-24c-1.105 0-2-0.895-2-2 0-0.007 0-0.014 0-0.020l26-3.98z"></path>
</symbol>
<symbol id="icon-location2" viewBox="0 0 32 32">
<path d="M16 0c-5.523 0-10 4.477-10 10 0 10 10 22 10 22s10-12 10-22c0-5.523-4.477-10-10-10zM16 16.125c-3.383 0-6.125-2.742-6.125-6.125s2.742-6.125 6.125-6.125 6.125 2.742 6.125 6.125-2.742 6.125-6.125 6.125zM12.125 10c0-2.14 1.735-3.875 3.875-3.875s3.875 1.735 3.875 3.875c0 2.14-1.735 3.875-3.875 3.875s-3.875-1.735-3.875-3.875z"></path>
</symbol>
<symbol id="icon-quotes-right" viewBox="0 0 32 32">
<path d="M25 20c-3.866 0-7-3.134-7-7s3.134-7 7-7 7 3.134 7 7l0.031 1c0 7.732-6.268 14-14 14v-4c2.671 0 5.182-1.040 7.071-2.929 0.364-0.364 0.695-0.75 0.995-1.157-0.357 0.056-0.724 0.086-1.097 0.086zM7 20c-3.866 0-7-3.134-7-7s3.134-7 7-7 7 3.134 7 7l0.031 1c0 7.732-6.268 14-14 14v-4c2.671 0 5.182-1.040 7.071-2.929 0.364-0.364 0.695-0.75 0.995-1.157-0.357 0.056-0.724 0.086-1.097 0.086z"></path>
</symbol>
<symbol id="icon-search" viewBox="0 0 32 32">
<path d="M31.008 27.231l-7.58-6.447c-0.784-0.705-1.622-1.029-2.299-0.998 1.789-2.096 2.87-4.815 2.87-7.787 0-6.627-5.373-12-12-12s-12 5.373-12 12 5.373 12 12 12c2.972 0 5.691-1.081 7.787-2.87-0.031 0.677 0.293 1.515 0.998 2.299l6.447 7.58c1.104 1.226 2.907 1.33 4.007 0.23s0.997-2.903-0.23-4.007zM12 20c-4.418 0-8-3.582-8-8s3.582-8 8-8 8 3.582 8 8-3.582 8-8 8z"></path>
</symbol>
<symbol id="icon-glass" viewBox="0 0 32 32">
<path d="M24.306 0.527c-0.174-0.324-0.513-0.527-0.881-0.527h-14.85c-0.368 0-0.707 0.202-0.881 0.527-1.108 2.063-1.694 4.474-1.694 6.973 0 3.294 1.012 6.401 2.849 8.748 1.42 1.814 3.203 3.017 5.151 3.505v10.247h-3c-0.552 0-1 0.448-1 1s0.448 1 1 1h10c0.552 0 1-0.448 1-1s-0.448-1-1-1h-3v-10.247c1.949-0.488 3.732-1.691 5.151-3.505 1.837-2.347 2.849-5.454 2.849-8.748 0-2.499-0.586-4.91-1.694-6.973zM9.191 2h13.619c0.78 1.653 1.191 3.542 1.191 5.5 0 0.168-0.003 0.334-0.009 0.5h-15.981c-0.006-0.166-0.009-0.332-0.009-0.5-0-1.958 0.41-3.847 1.191-5.5z"></path>
</symbol>
<symbol id="icon-glass2" viewBox="0 0 32 32">
<path d="M27.786 5.618c0.236-0.301 0.28-0.711 0.113-1.055s-0.517-0.563-0.899-0.563h-22c-0.383 0-0.732 0.219-0.899 0.563s-0.123 0.754 0.113 1.055l9.786 12.455v11.927h-3c-0.552 0-1 0.448-1 1s0.448 1 1 1h10c0.552 0 1-0.448 1-1s-0.448-1-1-1h-3v-11.927l9.786-12.455zM24.943 6l-3.143 4h-11.599l-3.143-4h17.885z"></path>
</symbol>
<symbol id="icon-mug" viewBox="0 0 32 32">
<path d="M30 10h-6v-3c0-2.761-5.373-5-12-5s-12 2.239-12 5v20c0 2.761 5.373 5 12 5s12-2.239 12-5v-3h6c1.105 0 2-0.895 2-2v-10c0-1.105-0.895-2-2-2zM5.502 8.075c-1.156-0.381-1.857-0.789-2.232-1.075 0.375-0.286 1.075-0.694 2.232-1.075 1.811-0.597 4.118-0.925 6.498-0.925s4.688 0.329 6.498 0.925c1.156 0.381 1.857 0.789 2.232 1.075-0.375 0.286-1.076 0.694-2.232 1.075-1.811 0.597-4.118 0.925-6.498 0.925s-4.688-0.329-6.498-0.925zM28 20h-4v-6h4v6z"></path>
</symbol>
<symbol id="icon-spoon-knife" viewBox="0 0 32 32">
<path d="M7 0c-3.314 0-6 3.134-6 7 0 3.31 1.969 6.083 4.616 6.812l-0.993 16.191c-0.067 1.098 0.778 1.996 1.878 1.996h1c1.1 0 1.945-0.898 1.878-1.996l-0.993-16.191c2.646-0.729 4.616-3.502 4.616-6.812 0-3.866-2.686-7-6-7zM27.167 0l-1.667 10h-1.25l-0.833-10h-0.833l-0.833 10h-1.25l-1.667-10h-0.833v13c0 0.552 0.448 1 1 1h2.604l-0.982 16.004c-0.067 1.098 0.778 1.996 1.878 1.996h1c1.1 0 1.945-0.898 1.878-1.996l-0.982-16.004h2.604c0.552 0 1-0.448 1-1v-13h-0.833z"></path>
</symbol>
<symbol id="icon-leaf" viewBox="0 0 32 32">
<path d="M31.604 4.203c-3.461-2.623-8.787-4.189-14.247-4.189-6.754 0-12.257 2.358-15.099 6.469-1.335 1.931-2.073 4.217-2.194 6.796-0.108 2.296 0.278 4.835 1.146 7.567 2.965-8.887 11.244-15.847 20.79-15.847 0 0-8.932 2.351-14.548 9.631-0.003 0.004-0.078 0.097-0.207 0.272-1.128 1.509-2.111 3.224-2.846 5.166-1.246 2.963-2.4 7.030-2.4 11.931h4c0 0-0.607-3.819 0.449-8.212 1.747 0.236 3.308 0.353 4.714 0.353 3.677 0 6.293-0.796 8.231-2.504 1.736-1.531 2.694-3.587 3.707-5.764 1.548-3.325 3.302-7.094 8.395-10.005 0.292-0.167 0.48-0.468 0.502-0.804s-0.126-0.659-0.394-0.862z"></path>
</symbol>
<symbol id="icon-fire" viewBox="0 0 32 32">
<path d="M10.031 32c-2.133-4.438-0.997-6.981 0.642-9.376 1.795-2.624 2.258-5.221 2.258-5.221s1.411 1.834 0.847 4.703c2.493-2.775 2.963-7.196 2.587-8.889 5.635 3.938 8.043 12.464 4.798 18.783 17.262-9.767 4.294-24.38 2.036-26.027 0.753 1.646 0.895 4.433-0.625 5.785-2.573-9.759-8.937-11.759-8.937-11.759 0.753 5.033-2.728 10.536-6.084 14.648-0.118-2.007-0.243-3.392-1.298-5.312-0.237 3.646-3.023 6.617-3.777 10.27-1.022 4.946 0.765 8.568 7.555 12.394z"></path>
</symbol>
<symbol id="icon-star-half" viewBox="0 0 32 32">
<path d="M32 12.408l-11.056-1.607-4.944-10.018-4.944 10.018-11.056 1.607 8 7.798-1.889 11.011 9.889-5.199 9.889 5.199-1.889-11.011 8-7.798zM16 23.547l-0.029 0.015 0.029-17.837 3.492 7.075 7.807 1.134-5.65 5.507 1.334 7.776-6.983-3.671z"></path>
</symbol>
<symbol id="icon-star-full" viewBox="0 0 32 32">
<path d="M32 12.408l-11.056-1.607-4.944-10.018-4.944 10.018-11.056 1.607 8 7.798-1.889 11.011 9.889-5.199 9.889 5.199-1.889-11.011 8-7.798z"></path>
</symbol>
<symbol id="icon-checkmark" viewBox="0 0 32 32">
<path d="M27 4l-15 15-7-7-5 5 12 12 20-20z"></path>
</symbol>
<symbol id="icon-arrow-right2" viewBox="0 0 32 32">
<path d="M19.414 27.414l10-10c0.781-0.781 0.781-2.047 0-2.828l-10-10c-0.781-0.781-2.047-0.781-2.828 0s-0.781 2.047 0 2.828l6.586 6.586h-19.172c-1.105 0-2 0.895-2 2s0.895 2 2 2h19.172l-6.586 6.586c-0.39 0.39-0.586 0.902-0.586 1.414s0.195 1.024 0.586 1.414c0.781 0.781 2.047 0.781 2.828 0z"></path>
</symbol>
<symbol id="icon-arrow-down-right2" viewBox="0 0 32 32">
<path d="M4.586 7.414l16.586 16.586h-7.171c-1.105 0-2 0.895-2 2s0.895 2 2 2h12c0.809 0 1.538-0.487 1.848-1.235 0.103-0.248 0.151-0.508 0.151-0.765h0.001v-12c0-1.105-0.895-2-2-2s-2 0.895-2 2v7.172l-16.586-16.586c-0.391-0.391-0.902-0.586-1.414-0.586s-1.024 0.195-1.414 0.586c-0.781 0.781-0.781 2.047 0 2.828z"></path>
</symbol>
<symbol id="icon-arrow-down2" viewBox="0 0 32 32">
<path d="M27.414 19.414l-10 10c-0.781 0.781-2.047 0.781-2.828 0l-10-10c-0.781-0.781-0.781-2.047 0-2.828s2.047-0.781 2.828 0l6.586 6.586v-19.172c0-1.105 0.895-2 2-2s2 0.895 2 2v19.172l6.586-6.586c0.39-0.39 0.902-0.586 1.414-0.586s1.024 0.195 1.414 0.586c0.781 0.781 0.781 2.047 0 2.828z"></path>
</symbol>
<symbol id="icon-arrow-left2" viewBox="0 0 32 32">
<path d="M12.586 27.414l-10-10c-0.781-0.781-0.781-2.047 0-2.828l10-10c0.781-0.781 2.047-0.781 2.828 0s0.781 2.047 0 2.828l-6.586 6.586h19.172c1.105 0 2 0.895 2 2s-0.895 2-2 2h-19.172l6.586 6.586c0.39 0.39 0.586 0.902 0.586 1.414s-0.195 1.024-0.586 1.414c-0.781 0.781-2.047 0.781-2.828 0z"></path>
</symbol>
<symbol id="icon-circle-right" viewBox="0 0 32 32">
<path d="M16 0c-8.837 0-16 7.163-16 16s7.163 16 16 16 16-7.163 16-16-7.163-16-16-16zM16 29c-7.18 0-13-5.82-13-13s5.82-13 13-13 13 5.82 13 13-5.82 13-13 13z"></path>
<path d="M11.086 22.086l2.829 2.829 8.914-8.914-8.914-8.914-2.828 2.828 6.086 6.086z"></path>
</symbol>
<symbol id="icon-circle-left" viewBox="0 0 32 32">
<path d="M16 32c8.837 0 16-7.163 16-16s-7.163-16-16-16-16 7.163-16 16 7.163 16 16 16zM16 3c7.18 0 13 5.82 13 13s-5.82 13-13 13-13-5.82-13-13 5.82-13 13-13z"></path>
<path d="M20.914 9.914l-2.829-2.829-8.914 8.914 8.914 8.914 2.828-2.828-6.086-6.086z"></path>
</symbol>
<symbol id="icon-facebook" viewBox="0 0 32 32">
<path d="M19 6h5v-6h-5c-3.86 0-7 3.14-7 7v3h-4v6h4v16h6v-16h5l1-6h-6v-3c0-0.542 0.458-1 1-1z"></path>
</symbol>
<symbol id="icon-facebook2" viewBox="0 0 32 32">
<path d="M29 0h-26c-1.65 0-3 1.35-3 3v26c0 1.65 1.35 3 3 3h13v-14h-4v-4h4v-2c0-3.306 2.694-6 6-6h4v4h-4c-1.1 0-2 0.9-2 2v2h6l-1 4h-5v14h9c1.65 0 3-1.35 3-3v-26c0-1.65-1.35-3-3-3z"></path>
</symbol>
<symbol id="icon-instagram" viewBox="0 0 32 32">
<path d="M16 2.881c4.275 0 4.781 0.019 6.462 0.094 1.563 0.069 2.406 0.331 2.969 0.55 0.744 0.288 1.281 0.638 1.837 1.194 0.563 0.563 0.906 1.094 1.2 1.838 0.219 0.563 0.481 1.412 0.55 2.969 0.075 1.688 0.094 2.194 0.094 6.463s-0.019 4.781-0.094 6.463c-0.069 1.563-0.331 2.406-0.55 2.969-0.288 0.744-0.637 1.281-1.194 1.837-0.563 0.563-1.094 0.906-1.837 1.2-0.563 0.219-1.413 0.481-2.969 0.55-1.688 0.075-2.194 0.094-6.463 0.094s-4.781-0.019-6.463-0.094c-1.563-0.069-2.406-0.331-2.969-0.55-0.744-0.288-1.281-0.637-1.838-1.194-0.563-0.563-0.906-1.094-1.2-1.837-0.219-0.563-0.481-1.413-0.55-2.969-0.075-1.688-0.094-2.194-0.094-6.463s0.019-4.781 0.094-6.463c0.069-1.563 0.331-2.406 0.55-2.969 0.288-0.744 0.638-1.281 1.194-1.838 0.563-0.563 1.094-0.906 1.838-1.2 0.563-0.219 1.412-0.481 2.969-0.55 1.681-0.075 2.188-0.094 6.463-0.094zM16 0c-4.344 0-4.887 0.019-6.594 0.094-1.7 0.075-2.869 0.35-3.881 0.744-1.056 0.412-1.95 0.956-2.837 1.85-0.894 0.888-1.438 1.781-1.85 2.831-0.394 1.019-0.669 2.181-0.744 3.881-0.075 1.713-0.094 2.256-0.094 6.6s0.019 4.887 0.094 6.594c0.075 1.7 0.35 2.869 0.744 3.881 0.413 1.056 0.956 1.95 1.85 2.837 0.887 0.887 1.781 1.438 2.831 1.844 1.019 0.394 2.181 0.669 3.881 0.744 1.706 0.075 2.25 0.094 6.594 0.094s4.888-0.019 6.594-0.094c1.7-0.075 2.869-0.35 3.881-0.744 1.050-0.406 1.944-0.956 2.831-1.844s1.438-1.781 1.844-2.831c0.394-1.019 0.669-2.181 0.744-3.881 0.075-1.706 0.094-2.25 0.094-6.594s-0.019-4.887-0.094-6.594c-0.075-1.7-0.35-2.869-0.744-3.881-0.394-1.063-0.938-1.956-1.831-2.844-0.887-0.887-1.781-1.438-2.831-1.844-1.019-0.394-2.181-0.669-3.881-0.744-1.712-0.081-2.256-0.1-6.6-0.1v0z"></path>
<path d="M16 7.781c-4.537 0-8.219 3.681-8.219 8.219s3.681 8.219 8.219 8.219 8.219-3.681 8.219-8.219c0-4.537-3.681-8.219-8.219-8.219zM16 21.331c-2.944 0-5.331-2.387-5.331-5.331s2.387-5.331 5.331-5.331c2.944 0 5.331 2.387 5.331 5.331s-2.387 5.331-5.331 5.331z"></path>
<path d="M26.462 7.456c0 1.060-0.859 1.919-1.919 1.919s-1.919-0.859-1.919-1.919c0-1.060 0.859-1.919 1.919-1.919s1.919 0.859 1.919 1.919z"></path>
</symbol>
<symbol id="icon-twitter" viewBox="0 0 32 32">
<path d="M32 7.075c-1.175 0.525-2.444 0.875-3.769 1.031 1.356-0.813 2.394-2.1 2.887-3.631-1.269 0.75-2.675 1.3-4.169 1.594-1.2-1.275-2.906-2.069-4.794-2.069-3.625 0-6.563 2.938-6.563 6.563 0 0.512 0.056 1.012 0.169 1.494-5.456-0.275-10.294-2.888-13.531-6.862-0.563 0.969-0.887 2.1-0.887 3.3 0 2.275 1.156 4.287 2.919 5.463-1.075-0.031-2.087-0.331-2.975-0.819 0 0.025 0 0.056 0 0.081 0 3.181 2.263 5.838 5.269 6.437-0.55 0.15-1.131 0.231-1.731 0.231-0.425 0-0.831-0.044-1.237-0.119 0.838 2.606 3.263 4.506 6.131 4.563-2.25 1.762-5.075 2.813-8.156 2.813-0.531 0-1.050-0.031-1.569-0.094 2.913 1.869 6.362 2.95 10.069 2.95 12.075 0 18.681-10.006 18.681-18.681 0-0.287-0.006-0.569-0.019-0.85 1.281-0.919 2.394-2.075 3.275-3.394z"></path>
</symbol>
</defs>
</svg>
